<?xml version="1.0" encoding="UTF-8"?>
<!-- Created with Inkscape (http://www.inkscape.org/) -->
<svg width="34.069mm" height="26.111mm" version="1.1" viewBox="0 0 34.069 26.111" xmlns="http://www.w3.org/2000/svg">
 <g transform="translate(-90.638 -85.966)" fill="#fff" stroke="#000">
  <path d="m97.829 91.095c-1.169 0.0017-2.1167 0.94768-2.1167 2.1167v11.664c0 1.169 0.94768 2.1167 2.1167 2.1167h11.664c2.7913-0.037 5.348-0.0439 8.0207-0.0439 1.169 0 2.1167-0.94768 2.1167-2.1167v-11.664c0-1.169-0.94768-2.1167-2.1167-2.1167-6.4738 0.02261-13.711 0.03407-19.685 0.0439z" stroke-width=".53202"/>
  <g stroke-width=".485">
   <g transform="translate(84.677 26.067)">
    <circle cx="37.763" cy="68.923" r="2.0258"/>
    <circle cx="37.763" cy="76.943" r="2.0258"/>
   </g>
   <g transform="translate(85.951 27.332)">
    <circle cx="21.722" cy="60.903" r="2.0258"/>
    <circle cx="29.742" cy="60.903" r="2.0258"/>
   </g>
   <g transform="translate(85.951 24.802)">
    <circle cx="29.742" cy="84.964" r="2.0258"/>
    <circle cx="21.722" cy="84.964" r="2.0258"/>
   </g>
   <g transform="translate(79.205 26.111)">
    <circle cx="13.702" cy="76.943" r="2.0258"/>
    <circle cx="13.702" cy="68.923" r="2.0258"/>
   </g>
  </g>
  <g transform="translate(77.93 24.846)">
   <circle cx="21.722" cy="84.964" r="2.0258" fill="#fff" stroke="#000" stroke-width=".485"/>
  </g>
  <circle cx="99.652" cy="88.279" r="2.0258" stroke-width=".485"/>
 </g>
</svg>
