<?xml version="1.0" encoding="UTF-8"?>
<!-- Created with Inkscape (http://www.inkscape.org/) -->
<svg width="34.069mm" height="26.111mm" version="1.1" viewBox="0 0 34.069 26.111" xmlns="http://www.w3.org/2000/svg">
 <g transform="translate(-90.638 -85.966)" fill="#808080" stroke="#808080">
  <path d="m105.85 91.051a2.1167 2.1167 0 0 0-0.40359 0.04393h-7.6171a2.1167 2.1167 0 0 0-2.1167 2.1167v11.664a2.1167 2.1167 0 0 0 2.1167 2.1167h11.664a2.1167 2.1167 0 0 0 0.40618-0.0439h7.6145a2.1167 2.1167 0 0 0 2.1167-2.1167v-11.664a2.1167 2.1167 0 0 0-2.1167-2.1167z" stroke-width=".53202"/>
  <g stroke-width=".485">
   <g transform="translate(84.677 26.067)">
    <circle cx="37.763" cy="68.923" r="2.0258"/>
    <circle cx="37.763" cy="76.943" r="2.0258"/>
   </g>
   <g transform="translate(85.951 27.332)">
    <circle cx="21.722" cy="60.903" r="2.0258"/>
    <circle cx="29.742" cy="60.903" r="2.0258"/>
   </g>
   <g transform="translate(85.951 24.802)">
    <circle cx="29.742" cy="84.964" r="2.0258"/>
    <circle cx="21.722" cy="84.964" r="2.0258"/>
   </g>
   <g transform="translate(79.205 26.111)">
    <circle cx="13.702" cy="76.943" r="2.0258"/>
    <circle cx="13.702" cy="68.923" r="2.0258"/>
   </g>
  </g>
  <g transform="translate(77.93 24.846)">
   <circle cx="21.722" cy="84.964" r="2.0258" fill="#808080" stroke="#808080" stroke-width=".485"/>
  </g>
  <circle cx="99.652" cy="88.279" r="2.0258" stroke-width=".485"/>
  <path transform="matrix(.26458 0 0 .26458 90.638 85.966)" d="m25.417 78.14c-2.3618-0.67001-4.089-2.3522-4.8091-4.6839-0.31917-1.0334-0.32715-1.6197-0.32715-24.037 0-22.423 0.0079-23.003 0.32738-24.038 0.61917-2.0046 2.1714-3.682 4.1427-4.4766l0.91056-0.36707 17.632-0.10719c30.857-0.18759 58.658-0.17051 59.634 0.03664 2.6634 0.56555 4.8439 2.746 5.4094 5.4094 0.26379 1.2423 0.26379 45.511 0 46.754-0.40063 1.8867-1.7014 3.6966-3.3518 4.6638-1.6436 0.96321 0.72167 0.90453-40.623 1.0078-34.081 0.0851-38.133 0.06823-38.945-0.16219z" stroke-width=".30348"/>
 </g>
</svg>
