<?xml version="1.0" standalone="no"?>
<!DOCTYPE svg PUBLIC "-//W3C//DTD SVG 20010904//EN"
 "http://www.w3.org/TR/2001/REC-SVG-20010904/DTD/svg10.dtd">
<svg version="1.0" xmlns="http://www.w3.org/2000/svg"
 width="256.000000pt" height="256.000000pt" viewBox="0 0 256.000000 256.000000"
 preserveAspectRatio="xMidYMid meet">

<g transform="translate(0.000000,256.000000) scale(0.100000,-0.100000)"
fill="#000000" stroke="none">
<path d="M1164 2441 c-43 -20 -77 -56 -99 -106 -7 -16 -146 -182 -309 -367
-163 -186 -296 -340 -296 -343 0 -3 66 -5 148 -5 l147 0 203 233 203 233 82
-1 81 0 204 -232 204 -233 151 0 150 0 -20 23 c-224 251 -593 680 -593 690 0
27 -51 86 -93 106 -53 26 -109 26 -163 2z"/>
<path d="M85 1451 c-65 -39 -70 -53 -70 -171 0 -102 2 -110 25 -135 14 -15 43
-35 65 -45 l41 -17 117 -419 c132 -467 147 -503 229 -543 44 -21 50 -21 788
-21 738 0 744 0 788 21 83 40 98 76 229 543 l118 419 40 17 c22 10 51 30 65
45 23 24 25 36 28 129 4 99 3 103 -23 135 -56 65 31 61 -1247 61 -1115 0
-1164 -1 -1193 -19z m593 -377 c39 -16 87 -56 104 -87 5 -10 36 -138 68 -284
54 -241 58 -269 46 -297 -7 -17 -23 -40 -35 -50 -24 -21 -101 -32 -156 -22
-36 7 -107 62 -126 98 -6 11 -37 139 -69 284 -47 213 -57 271 -49 292 13 34
38 62 64 73 33 13 113 10 153 -7z m673 -6 c25 -14 46 -37 59 -63 18 -38 20
-62 20 -301 0 -250 -1 -260 -23 -298 -57 -100 -197 -100 -254 0 -22 38 -23 48
-23 298 0 239 2 263 20 301 38 78 126 105 201 63z m710 -3 c12 -11 28 -34 35
-51 12 -28 8 -56 -46 -297 -32 -146 -63 -274 -69 -285 -19 -36 -90 -91 -126
-98 -55 -10 -132 1 -156 22 -12 10 -28 33 -35 50 -12 28 -8 56 46 297 32 146
63 274 68 284 16 29 64 71 102 88 49 22 151 16 181 -10z"/>
</g>
</svg>
